<svg xmlns="http://www.w3.org/2000/svg" width="410" height="404" viewBox="0 0 410 404" fill="none">
  <path d="M399.641 59.5246L215.643 388.545C211.844 395.338 201.37 395.378 197.516 388.618L10.5817 59.5563C6.38087 52.1896 12.6802 43.2665 21.0281 44.7586L205.223 77.6824C206.398 77.8924 207.601 77.8904 208.776 77.6763L389.119 44.8058C397.439 43.2894 403.768 52.1434 399.641 59.5246Z" fill="url(#paint0_linear)"/>
  <path d="M292.965 1.5744L156.801 28.2552C154.563 28.6937 152.906 30.5903 152.771 32.8786L144.395 174.33C144.198 177.726 147.258 180.415 150.54 179.723L188.42 171.746C191.967 171.004 195.172 174.053 194.437 177.6L183.18 233.198C182.422 236.862 185.907 240.005 189.51 239.027L212.947 232.724C216.549 231.746 220.034 234.889 219.276 238.553L201.054 327.428C200.123 331.983 206.883 334.237 209.086 329.977L210.588 327.117L322.177 102.242C324.238 98.0205 320.53 93.1751 315.853 94.0432L277.726 101.003C274.068 101.667 270.936 98.3565 271.838 94.742L301.398 3.81266C302.3 0.197623 299.128 -3.11306 295.449 -2.38102L292.965 1.5744Z" fill="url(#paint1_linear)"/>
  <defs>
    <linearGradient id="paint0_linear" x1="6.00017" y1="32.9999" x2="235" y2="344" gradientUnits="userSpaceOnUse">
      <stop stop-color="#41D1FF"/>
      <stop offset="1" stop-color="#BD34FE"/>
    </linearGradient>
    <linearGradient id="paint1_linear" x1="194.651" y1="8.81818" x2="236.076" y2="292.989" gradientUnits="userSpaceOnUse">
      <stop stop-color="#FFEA83"/>
      <stop offset="0.0833333" stop-color="#FFDD35"/>
      <stop offset="1" stop-color="#FFA800"/>
    </linearGradient>
  </defs>
</svg>
